<svg width="170" height="30" viewBox="0 0 170 30" fill="none" xmlns="http://www.w3.org/2000/svg">
<path fill-rule="evenodd" clip-rule="evenodd" d="M76.1559 9.78695L74.8834 3.74634L70.3351 7.8786L76.1559 9.78695ZM54.5415 7.84929V23.573H57.4156V7.84929H54.5415ZM31.0353 23.573L31.0564 8.17018H33.9727V17.583L37.84 12.0209H41.3902L37.2694 17.7969L41.665 23.573H37.9245L33.9727 18.0109V23.573H31.0353ZM45.8864 23.8939C45.0692 23.8939 44.3754 23.737 43.8048 23.4232C43.2413 23.1023 42.8116 22.6781 42.5157 22.1504C42.2269 21.6155 42.0825 21.0272 42.0825 20.3855C42.0825 19.8506 42.1635 19.3622 42.3255 18.9201C42.4875 18.4779 42.7482 18.0893 43.1074 17.7542C43.4737 17.4119 43.9633 17.1266 44.5761 16.8984C44.9988 16.7416 45.5024 16.6025 46.0871 16.4813C46.6718 16.3601 47.3339 16.246 48.0736 16.139C48.5089 16.0718 48.9699 16.001 49.4565 15.9264C49.4018 15.4502 49.2473 15.086 48.9928 14.834C48.6688 14.5131 48.1264 14.3527 47.3656 14.3527C46.943 14.3527 46.5027 14.4561 46.0448 14.6629C45.587 14.8697 45.2665 15.2369 45.0833 15.7646L42.484 14.9303C42.7728 13.9748 43.3152 13.1975 44.1112 12.5985C44.9072 11.9995 45.992 11.7 47.3656 11.7C48.373 11.7 49.2676 11.8569 50.0495 12.1706C50.8314 12.4844 51.4231 13.0263 51.8246 13.7965C52.05 14.2243 52.1839 14.6522 52.2261 15.0801C52.2684 15.5079 52.2895 15.9857 52.2895 16.5134V23.573H49.7747V22.1549C49.3207 22.6964 48.8382 23.1049 48.3272 23.3805C47.6861 23.7227 46.8725 23.8939 45.8864 23.8939ZM46.4992 21.6049C47.0275 21.6049 47.4713 21.5121 47.8305 21.3267C48.1968 21.1342 48.4857 20.9167 48.697 20.6743C48.9154 20.4318 49.0633 20.2286 49.1408 20.0646C49.2887 19.7508 49.3732 19.3871 49.3944 18.9735C49.4115 18.7172 49.4235 18.4873 49.4302 18.2839C48.9569 18.3658 48.5504 18.4387 48.2109 18.5029C47.6826 18.5956 47.2564 18.6812 46.9324 18.7596C46.6084 18.8381 46.3231 18.9236 46.0765 19.0163C45.7948 19.1304 45.5658 19.2552 45.3897 19.3907C45.2207 19.5191 45.0939 19.6617 45.0094 19.8186C44.9319 19.9754 44.8931 20.1501 44.8931 20.3427C44.8931 20.6065 44.9565 20.8347 45.0833 21.0272C45.2172 21.2126 45.4038 21.3553 45.6433 21.4551C45.8828 21.5549 46.1681 21.6049 46.4992 21.6049ZM65.1809 23.8939C64.0115 23.8939 62.9795 23.6407 62.0849 23.1344C61.1974 22.621 60.5 21.9186 59.9928 21.0272C59.4927 20.1287 59.2426 19.1019 59.2426 17.9467C59.2426 16.6845 59.4892 15.5863 59.9822 14.6522C60.4753 13.718 61.1551 12.9943 62.0215 12.4808C62.888 11.9603 63.8847 11.7 65.0118 11.7C66.2093 11.7 67.2272 11.9852 68.0654 12.5557C68.9037 13.1262 69.5236 13.9284 69.9251 14.9624C70.3266 15.9964 70.4675 17.2122 70.3478 18.6099H68.9636H67.5054H62.335C62.4247 19.3032 62.6373 19.8665 62.9725 20.2999C63.4374 20.8846 64.1172 21.177 65.0118 21.177C65.5753 21.177 66.0579 21.0522 66.4594 20.8026C66.8609 20.553 67.1673 20.1929 67.3786 19.7223L70.2527 20.5566C69.823 21.612 69.1432 22.432 68.2134 23.0168C67.2906 23.6015 66.2797 23.8939 65.1809 23.8939ZM66.9454 15.0052C67.1911 15.343 67.3559 15.8243 67.4399 16.4492H62.4106C62.5226 15.9156 62.7099 15.4771 62.9725 15.1335C63.4374 14.5274 64.1594 14.2243 65.1386 14.2243C65.9768 14.2243 66.5791 14.4846 66.9454 15.0052ZM75.1122 12.0209H72.2382V23.573H75.1122V12.0209ZM82.2013 23.8939C81.1517 23.8939 80.2324 23.6265 79.4435 23.0916C78.6545 22.5568 78.0382 21.8295 77.5944 20.9096C77.1577 19.9897 76.9393 18.9521 76.9393 17.7969C76.9393 16.6203 77.1612 15.5757 77.605 14.6629C78.0558 13.743 78.6863 13.0192 79.4963 12.4915C80.3064 11.9638 81.2574 11.7 82.3492 11.7C83.3578 11.7 84.2172 11.9311 84.9274 12.3934V8.17018H87.8226V23.573H85.2867V22.9091C85.2079 22.9722 85.1269 23.0331 85.0436 23.0916C84.2829 23.6265 83.3354 23.8939 82.2013 23.8939ZM85.0331 19.6367C85.2021 19.109 85.2867 18.4958 85.2867 17.7969C85.2867 17.0981 85.2021 16.4848 85.0331 15.9572C84.864 15.4295 84.5928 15.0194 84.2195 14.7271C83.8532 14.4347 83.3706 14.2885 82.7719 14.2885C82.1309 14.2885 81.6025 14.449 81.1869 14.7699C80.7784 15.0836 80.4755 15.5079 80.2782 16.0427C80.081 16.5704 79.9824 17.1552 79.9824 17.7969C79.9824 18.4458 80.0775 19.0377 80.2677 19.5725C80.4579 20.1002 80.7502 20.5209 81.1447 20.8347C81.5391 21.1485 82.0463 21.3054 82.6662 21.3054C83.3072 21.3054 83.8179 21.1592 84.1983 20.8668C84.5858 20.5744 84.864 20.1644 85.0331 19.6367ZM92.1877 23.113C93.0541 23.6336 94.0614 23.8939 95.2096 23.8939C96.3508 23.8939 97.3546 23.6372 98.221 23.1237C99.0945 22.6032 99.7742 21.8865 100.26 20.9738C100.753 20.0539 101 18.9949 101 17.7969C101 16.6061 100.757 15.5543 100.271 14.6415C99.7848 13.7216 99.1051 13.0014 98.2316 12.4808C97.3651 11.9603 96.3578 11.7 95.2096 11.7C94.0825 11.7 93.0858 11.9567 92.2194 12.4701C91.3529 12.9836 90.6732 13.7002 90.1801 14.6201C89.687 15.5329 89.4404 16.5918 89.4404 17.7969C89.4404 18.9878 89.6799 20.0432 90.1589 20.9631C90.645 21.8758 91.3212 22.5925 92.1877 23.113ZM97.27 20.2357C96.8192 20.8632 96.1324 21.177 95.2096 21.177C94.315 21.177 93.6352 20.8739 93.1703 20.2678C92.7125 19.6545 92.4835 18.8309 92.4835 17.7969C92.4835 17.1266 92.5786 16.5383 92.7688 16.032C92.966 15.5257 93.2654 15.13 93.6669 14.8447C94.0685 14.5595 94.5827 14.4169 95.2096 14.4169C96.1183 14.4169 96.8016 14.7235 97.2595 15.3368C97.7244 15.95 97.9569 16.7701 97.9569 17.7969C97.9569 18.7881 97.7279 19.6011 97.27 20.2357Z" fill="#212529"/>
<path fill-rule="evenodd" clip-rule="evenodd" d="M20.1922 24.0488C19.6266 24.5581 19.0102 25.012 18.3515 25.4021C18.2632 25.4544 18.1741 25.5055 18.0843 25.5555C16.4308 26.4758 14.5266 27 12.5 27C7.8826 27 3.90078 24.2787 2.07087 20.3525C1.70957 19.5773 1.43216 18.7551 1.2503 17.8976C1.24991 17.8958 1.24952 17.894 1.24913 17.8921C1.08588 17.1205 1 16.3203 1 15.5C1 15.4381 1.00049 15.3763 1.00146 15.3147C1.10045 9.04888 6.21061 4 12.5 4C12.8432 4 13.1828 4.01503 13.5183 4.04447C14.3923 4.12115 15.2382 4.29559 16.0451 4.55678C16.0522 4.55908 16.0593 4.56139 16.0664 4.5637C16.8932 4.83316 17.6789 5.19378 18.4115 5.63369C21.7596 7.64405 24 11.3104 24 15.5C24 17.9593 23.228 20.2383 21.9132 22.1079C21.8541 22.192 21.7938 22.2752 21.7325 22.3576C21.2765 22.9705 20.761 23.5364 20.1944 24.0468L16.0537 4.56639L1.25131 17.8945L20.1922 24.0488ZM15.0452 24.5681L5.11508 21.3416C6.83969 23.5189 9.50673 24.9156 12.5 24.9156C13.3824 24.9156 14.2359 24.7946 15.0452 24.5681ZM11.1453 6.1811L3.37237 13.1799C4.29775 9.52815 7.35699 6.72696 11.1453 6.1811ZM19.0764 8.76165L21.2497 18.9862C21.6796 17.908 21.9156 16.7319 21.9156 15.5C21.9156 12.8588 20.8281 10.4715 19.0764 8.76165Z" fill="#212529"/>
<path d="M107.792 8.4801H110.648L106.616 23.6001H103.76L107.792 8.4801ZM116.936 23.9151C115.893 23.9151 114.98 23.6526 114.196 23.1276C113.412 22.6026 112.799 21.8886 112.358 20.9856C111.924 20.0826 111.707 19.0641 111.707 17.9301C111.707 16.7751 111.928 15.7496 112.369 14.8536C112.817 13.9506 113.443 13.2401 114.248 12.7221C115.053 12.2041 115.998 11.9451 117.083 11.9451C118.161 11.9451 119.068 12.2076 119.803 12.7326C120.538 13.2576 121.094 13.9716 121.472 14.8746C121.85 15.7776 122.039 16.7961 122.039 17.9301C122.039 19.0641 121.847 20.0826 121.462 20.9856C121.084 21.8886 120.517 22.6026 119.761 23.1276C119.005 23.6526 118.063 23.9151 116.936 23.9151ZM117.398 21.3741C118.035 21.3741 118.543 21.2306 118.921 20.9436C119.306 20.6566 119.582 20.2541 119.75 19.7361C119.918 19.2181 120.002 18.6161 120.002 17.9301C120.002 17.2441 119.918 16.6421 119.75 16.1241C119.582 15.6061 119.313 15.2036 118.942 14.9166C118.578 14.6296 118.098 14.4861 117.503 14.4861C116.866 14.4861 116.341 14.6436 115.928 14.9586C115.522 15.2666 115.221 15.6831 115.025 16.2081C114.829 16.7261 114.731 17.3001 114.731 17.9301C114.731 18.5671 114.826 19.1481 115.015 19.6731C115.204 20.1911 115.494 20.6041 115.886 20.9121C116.278 21.2201 116.782 21.3741 117.398 21.3741ZM120.002 23.6001V15.8301H119.645V8.4801H122.522V23.6001H120.002ZM130.565 23.9151C129.424 23.9151 128.423 23.6596 127.562 23.1486C126.701 22.6376 126.029 21.9341 125.546 21.0381C125.07 20.1351 124.832 19.0991 124.832 17.9301C124.832 16.7471 125.077 15.7076 125.567 14.8116C126.057 13.9086 126.733 13.2051 127.594 12.7011C128.455 12.1971 129.445 11.9451 130.565 11.9451C131.706 11.9451 132.707 12.2006 133.568 12.7116C134.436 13.2226 135.112 13.9296 135.595 14.8326C136.078 15.7286 136.319 16.7611 136.319 17.9301C136.319 19.1061 136.074 20.1456 135.584 21.0486C135.101 21.9446 134.426 22.6481 133.558 23.1591C132.697 23.6631 131.699 23.9151 130.565 23.9151ZM130.565 21.2481C131.482 21.2481 132.165 20.9401 132.613 20.3241C133.068 19.7011 133.295 18.9031 133.295 17.9301C133.295 16.9221 133.064 16.1171 132.602 15.5151C132.147 14.9131 131.468 14.6121 130.565 14.6121C129.942 14.6121 129.431 14.7521 129.032 15.0321C128.633 15.3121 128.336 15.7006 128.14 16.1976C127.951 16.6946 127.856 17.2721 127.856 17.9301C127.856 18.9451 128.084 19.7536 128.539 20.3556C129.001 20.9506 129.676 21.2481 130.565 21.2481ZM143.626 23.9151C142.45 23.9151 141.442 23.6526 140.602 23.1276C139.762 22.6026 139.118 21.8886 138.67 20.9856C138.222 20.0826 137.998 19.0641 137.998 17.9301C137.998 16.7821 138.229 15.7566 138.691 14.8536C139.16 13.9506 139.818 13.2401 140.665 12.7221C141.512 12.2041 142.513 11.9451 143.668 11.9451C145.005 11.9451 146.125 12.2846 147.028 12.9636C147.938 13.6356 148.519 14.5561 148.771 15.7251L145.915 16.4811C145.747 15.8931 145.453 15.4346 145.033 15.1056C144.62 14.7766 144.151 14.6121 143.626 14.6121C143.024 14.6121 142.531 14.7591 142.146 15.0531C141.761 15.3401 141.477 15.7356 141.295 16.2396C141.113 16.7366 141.022 17.3001 141.022 17.9301C141.022 18.9171 141.239 19.7186 141.673 20.3346C142.114 20.9436 142.765 21.2481 143.626 21.2481C144.27 21.2481 144.76 21.1011 145.096 20.8071C145.432 20.5131 145.684 20.0931 145.852 19.5471L148.771 20.1561C148.449 21.3601 147.84 22.2876 146.944 22.9386C146.048 23.5896 144.942 23.9151 143.626 23.9151ZM155.302 23.9151C153.874 23.9151 152.719 23.5931 151.837 22.9491C150.962 22.2981 150.43 21.3811 150.241 20.1981L153.16 19.7571C153.279 20.2891 153.542 20.7056 153.948 21.0066C154.361 21.3076 154.882 21.4581 155.512 21.4581C156.03 21.4581 156.429 21.3601 156.709 21.1641C156.989 20.9611 157.129 20.6811 157.129 20.3241C157.129 20.1001 157.073 19.9216 156.961 19.7886C156.849 19.6486 156.597 19.5121 156.205 19.3791C155.82 19.2461 155.218 19.0711 154.399 18.8541C153.475 18.6161 152.737 18.3501 152.184 18.0561C151.631 17.7621 151.232 17.4121 150.987 17.0061C150.742 16.5931 150.619 16.0961 150.619 15.5151C150.619 14.7871 150.805 14.1571 151.176 13.6251C151.547 13.0861 152.068 12.6731 152.74 12.3861C153.419 12.0921 154.217 11.9451 155.134 11.9451C156.023 11.9451 156.811 12.0816 157.497 12.3546C158.183 12.6276 158.736 13.0161 159.156 13.5201C159.583 14.0241 159.845 14.6191 159.943 15.3051L157.024 15.8301C156.975 15.4101 156.793 15.0776 156.478 14.8326C156.163 14.5876 155.736 14.4441 155.197 14.4021C154.672 14.3671 154.249 14.4371 153.927 14.6121C153.612 14.7871 153.454 15.0391 153.454 15.3681C153.454 15.5641 153.521 15.7286 153.654 15.8616C153.794 15.9946 154.077 16.1311 154.504 16.2711C154.938 16.4111 155.596 16.5931 156.478 16.8171C157.339 17.0411 158.029 17.3036 158.547 17.6046C159.072 17.8986 159.453 18.2556 159.691 18.6756C159.929 19.0886 160.048 19.5891 160.048 20.1771C160.048 21.3391 159.628 22.2526 158.788 22.9176C157.948 23.5826 156.786 23.9151 155.302 23.9151Z" fill="url(#paint0_linear_3347_25130)"/>
<defs>
<linearGradient id="paint0_linear_3347_25130" x1="132" y1="0.600098" x2="132" y2="29.6001" gradientUnits="userSpaceOnUse">
<stop stop-color="#5360D7"/>
<stop offset="1" stop-color="#80C6EE"/>
</linearGradient>
</defs>
</svg>
