<svg width="104" height="30" viewBox="0 0 104 30" fill="none" xmlns="http://www.w3.org/2000/svg">
<path fill-rule="evenodd" clip-rule="evenodd" d="M76.1559 9.78695L74.8834 3.74634L70.3351 7.8786L76.1559 9.78695ZM54.5415 7.84929V23.573H57.4156V7.84929H54.5415ZM31.0353 23.573L31.0564 8.17018H33.9727V17.583L37.84 12.0209H41.3902L37.2694 17.7969L41.665 23.573H37.9245L33.9727 18.0109V23.573H31.0353ZM45.8864 23.8939C45.0692 23.8939 44.3754 23.737 43.8048 23.4232C43.2413 23.1023 42.8116 22.6781 42.5157 22.1504C42.2269 21.6155 42.0825 21.0272 42.0825 20.3855C42.0825 19.8506 42.1635 19.3622 42.3255 18.9201C42.4875 18.4779 42.7482 18.0893 43.1074 17.7542C43.4737 17.4119 43.9633 17.1266 44.5761 16.8984C44.9988 16.7416 45.5024 16.6025 46.0871 16.4813C46.6718 16.3601 47.3339 16.246 48.0736 16.139C48.5089 16.0718 48.9699 16.001 49.4565 15.9264C49.4018 15.4502 49.2473 15.086 48.9928 14.834C48.6688 14.5131 48.1264 14.3527 47.3656 14.3527C46.943 14.3527 46.5027 14.4561 46.0448 14.6629C45.587 14.8697 45.2665 15.2369 45.0833 15.7646L42.484 14.9303C42.7728 13.9748 43.3152 13.1975 44.1112 12.5985C44.9072 11.9995 45.992 11.7 47.3656 11.7C48.373 11.7 49.2676 11.8569 50.0495 12.1706C50.8314 12.4844 51.4231 13.0263 51.8246 13.7965C52.05 14.2243 52.1839 14.6522 52.2261 15.0801C52.2684 15.5079 52.2895 15.9857 52.2895 16.5134V23.573H49.7747V22.1549C49.3207 22.6964 48.8382 23.1049 48.3272 23.3805C47.6861 23.7227 46.8725 23.8939 45.8864 23.8939ZM46.4992 21.6049C47.0275 21.6049 47.4713 21.5121 47.8305 21.3267C48.1968 21.1342 48.4857 20.9167 48.697 20.6743C48.9154 20.4318 49.0633 20.2286 49.1408 20.0646C49.2887 19.7508 49.3732 19.3871 49.3944 18.9735C49.4115 18.7172 49.4235 18.4873 49.4302 18.2839C48.9569 18.3658 48.5504 18.4387 48.2109 18.5029C47.6826 18.5956 47.2564 18.6812 46.9324 18.7596C46.6084 18.8381 46.3231 18.9236 46.0765 19.0163C45.7948 19.1304 45.5658 19.2552 45.3897 19.3907C45.2207 19.5191 45.0939 19.6617 45.0094 19.8186C44.9319 19.9754 44.8931 20.1501 44.8931 20.3427C44.8931 20.6065 44.9565 20.8347 45.0833 21.0272C45.2172 21.2126 45.4038 21.3553 45.6433 21.4551C45.8828 21.5549 46.1681 21.6049 46.4992 21.6049ZM65.1809 23.8939C64.0115 23.8939 62.9795 23.6407 62.0849 23.1344C61.1974 22.621 60.5 21.9186 59.9928 21.0272C59.4927 20.1287 59.2426 19.1019 59.2426 17.9467C59.2426 16.6845 59.4892 15.5863 59.9822 14.6522C60.4753 13.718 61.1551 12.9943 62.0215 12.4808C62.888 11.9603 63.8847 11.7 65.0118 11.7C66.2093 11.7 67.2272 11.9852 68.0654 12.5557C68.9037 13.1262 69.5236 13.9284 69.9251 14.9624C70.3266 15.9964 70.4675 17.2122 70.3478 18.6099H68.9636H67.5054H62.335C62.4247 19.3032 62.6373 19.8665 62.9725 20.2999C63.4374 20.8846 64.1172 21.177 65.0118 21.177C65.5753 21.177 66.0579 21.0522 66.4594 20.8026C66.8609 20.553 67.1673 20.1929 67.3786 19.7223L70.2527 20.5566C69.823 21.612 69.1432 22.432 68.2134 23.0168C67.2906 23.6015 66.2798 23.8939 65.1809 23.8939ZM66.9454 15.0052C67.1911 15.343 67.3559 15.8243 67.4399 16.4492H62.4106C62.5226 15.9156 62.7099 15.4771 62.9725 15.1335C63.4374 14.5274 64.1594 14.2243 65.1386 14.2243C65.9768 14.2243 66.5791 14.4846 66.9454 15.0052ZM75.1122 12.0209H72.2382V23.573H75.1122V12.0209ZM82.2013 23.8939C81.1517 23.8939 80.2324 23.6265 79.4435 23.0916C78.6545 22.5568 78.0382 21.8295 77.5944 20.9096C77.1577 19.9897 76.9393 18.9521 76.9393 17.7969C76.9393 16.6203 77.1612 15.5757 77.605 14.6629C78.0558 13.743 78.6863 13.0192 79.4963 12.4915C80.3064 11.9638 81.2574 11.7 82.3492 11.7C83.3578 11.7 84.2172 11.9311 84.9274 12.3934V8.17018H87.8226V23.573H85.2867V22.9091C85.2079 22.9722 85.1269 23.0331 85.0436 23.0916C84.2829 23.6265 83.3354 23.8939 82.2013 23.8939ZM85.0331 19.6367C85.2021 19.109 85.2867 18.4958 85.2867 17.7969C85.2867 17.0981 85.2021 16.4848 85.0331 15.9572C84.864 15.4295 84.5928 15.0194 84.2195 14.7271C83.8532 14.4347 83.3706 14.2885 82.7719 14.2885C82.1309 14.2885 81.6025 14.449 81.1869 14.7699C80.7784 15.0836 80.4755 15.5079 80.2782 16.0427C80.081 16.5704 79.9824 17.1552 79.9824 17.7969C79.9824 18.4458 80.0775 19.0377 80.2677 19.5725C80.4579 20.1002 80.7502 20.521 81.1447 20.8347C81.5391 21.1485 82.0463 21.3054 82.6662 21.3054C83.3072 21.3054 83.8179 21.1592 84.1983 20.8668C84.5858 20.5744 84.864 20.1644 85.0331 19.6367ZM92.1877 23.113C93.0541 23.6336 94.0614 23.8939 95.2096 23.8939C96.3508 23.8939 97.3546 23.6372 98.221 23.1237C99.0945 22.6032 99.7742 21.8865 100.26 20.9738C100.753 20.0539 101 18.9949 101 17.7969C101 16.6061 100.757 15.5543 100.271 14.6415C99.7848 13.7216 99.105 13.0014 98.2316 12.4808C97.3651 11.9603 96.3578 11.7 95.2096 11.7C94.0825 11.7 93.0858 11.9567 92.2194 12.4701C91.3529 12.9836 90.6732 13.7002 90.1801 14.6201C89.687 15.5329 89.4404 16.5918 89.4404 17.7969C89.4404 18.9878 89.6799 20.0432 90.1589 20.9631C90.645 21.8758 91.3212 22.5925 92.1877 23.113ZM97.27 20.2357C96.8192 20.8632 96.1324 21.177 95.2096 21.177C94.315 21.177 93.6352 20.8739 93.1703 20.2678C92.7125 19.6545 92.4835 18.8309 92.4835 17.7969C92.4835 17.1266 92.5786 16.5383 92.7688 16.032C92.966 15.5257 93.2654 15.13 93.6669 14.8447C94.0685 14.5595 94.5827 14.4169 95.2096 14.4169C96.1183 14.4169 96.8016 14.7235 97.2595 15.3368C97.7244 15.95 97.9568 16.7701 97.9568 17.7969C97.9568 18.7881 97.7279 19.6011 97.27 20.2357Z" fill="#212529"/>
<path fill-rule="evenodd" clip-rule="evenodd" d="M20.1922 24.0488C19.6266 24.5581 19.0102 25.012 18.3515 25.4021C18.2632 25.4544 18.1741 25.5055 18.0843 25.5555C16.4308 26.4758 14.5266 27 12.5 27C7.8826 27 3.90078 24.2787 2.07087 20.3525C1.70957 19.5773 1.43216 18.7551 1.2503 17.8976C1.24991 17.8958 1.24952 17.894 1.24913 17.8921C1.08588 17.1205 1 16.3203 1 15.5C1 15.4381 1.00049 15.3763 1.00146 15.3147C1.10045 9.04888 6.21061 4 12.5 4C12.8432 4 13.1828 4.01503 13.5183 4.04447C14.3923 4.12115 15.2382 4.29559 16.0451 4.55678C16.0522 4.55908 16.0593 4.56139 16.0664 4.5637C16.8932 4.83316 17.6789 5.19378 18.4115 5.63369C21.7596 7.64405 24 11.3104 24 15.5C24 17.9593 23.228 20.2383 21.9132 22.1079C21.8541 22.192 21.7938 22.2752 21.7325 22.3576C21.2765 22.9705 20.761 23.5364 20.1944 24.0468L16.0537 4.56639L1.25131 17.8945L20.1922 24.0488ZM15.0452 24.5681L5.11508 21.3416C6.83969 23.5189 9.50673 24.9156 12.5 24.9156C13.3824 24.9156 14.2359 24.7946 15.0452 24.5681ZM11.1453 6.1811L3.37237 13.1799C4.29775 9.52815 7.35699 6.72696 11.1453 6.1811ZM19.0764 8.76165L21.2497 18.9862C21.6796 17.908 21.9156 16.7319 21.9156 15.5C21.9156 12.8588 20.8281 10.4715 19.0764 8.76165Z" fill="#212529"/>
</svg>
